<?xml version="1.0" encoding="UTF-8" standalone="no"?>
<!-- Created with Inkscape (http://www.inkscape.org/) -->

<svg
   width="50mm"
   height="50mm"
   viewBox="0 0 100 100"
   version="1.1"
   id="svg5"
   xml:space="preserve"
   inkscape:version="1.2.1 (9c6d41e410, 2022-07-14)"
   sodipodi:docname="bg_pilou.svg"
   xmlns:inkscape="http://www.inkscape.org/namespaces/inkscape"
   xmlns:sodipodi="http://sodipodi.sourceforge.net/DTD/sodipodi-0.dtd"
   xmlns="http://www.w3.org/2000/svg"
   xmlns:svg="http://www.w3.org/2000/svg"><sodipodi:namedview
     id="namedview7"
     pagecolor="#505050"
     bordercolor="#ffffff"
     borderopacity="1"
     inkscape:showpageshadow="0"
     inkscape:pageopacity="0"
     inkscape:pagecheckerboard="1"
     inkscape:deskcolor="#505050"
     inkscape:document-units="mm"
     showgrid="false"
     inkscape:zoom="1.0444209"
     inkscape:cx="204.4195"
     inkscape:cy="223.09013"
     inkscape:window-width="1920"
     inkscape:window-height="1009"
     inkscape:window-x="-8"
     inkscape:window-y="-8"
     inkscape:window-maximized="1"
     inkscape:current-layer="layer1" /><defs
     id="defs2" /><g
     inkscape:label="Calque 1"
     inkscape:groupmode="layer"
     id="layer1"><g
       id="g8632"><rect
         style="fill:#FFEEDD;fill-opacity:1;stroke-width:0.529167;stroke-linejoin:round"
         id="rect7476"
         width="100"
         height="100"
         x="0"
         y="0" /><path
         style="fill:#001122;stroke-width:0.116938;fill-opacity:1"
         d="M 0.85524153,99.581651 0.0073522,99.18695 V 83.616382 c 0,-13.641492 0.02126983,-15.562405 0.1716801,-15.504699 0.29039954,0.111414 0.31623231,-0.127676 0.0666437,-0.616807 -0.13107823,-0.256882 -0.23587327,-0.561231 -0.23287817,-0.676334 0.0030057,-0.115104 0.14098117,0.0538 0.3066357,0.375348 0.16565452,0.321549 0.31965484,0.605123 0.342222,0.630167 0.092526,0.102685 0.86604957,-0.598958 0.86604957,-0.78557 0,-0.264129 -0.73267816,-1.787986 -1.17404314,-2.441827 C 0.16319175,64.314496 0.0073522,63.999452 0.0073522,63.896563 c 0,-0.262286 0.64171471,0.651348 1.0240908,1.458042 0.1746779,0.368516 0.3273451,0.687816 0.3392605,0.709558 0.067073,0.122373 0.7417523,-0.529664 0.7417523,-0.716863 0,-0.326383 -0.4532185,-1.17749 -1.33208037,-2.501531 C 0.35521256,62.205243 0.0073522,61.585073 0.0073522,61.467614 c 0,-0.148769 0.10190337,-0.07292 0.33587067,0.249997 0.35966662,0.4964 1.59945173,2.523503 1.68858133,2.760901 0.035269,0.09394 0.1651201,0.03531 0.3783909,-0.1708 L 2.7348933,63.993902 2.5374618,63.47704 C 2.3588186,63.009369 0.96022752,60.905663 0.28014623,60.081673 L 0.0073522,59.751157 v -9.111245 -9.111245 l 0.73093883,-2.34e-4 C 1.9990591,41.528084 4.8070919,41.185026 6.1472378,40.867725 7.6421964,40.513765 9.2910365,39.944337 9.479934,39.716777 9.55735,39.623517 9.5803597,39.394326 9.536028,39.158069 L 9.4608623,38.757487 8.7907865,39.028086 C 7.4501716,39.56947 3.426654,40.353903 1.0306668,40.541005 -0.56597857,40.665694 -0.21147073,40.4142 1.4399922,40.250626 2.7373474,40.122127 4.9864428,39.762525 6.6735137,39.413859 7.7241175,39.196729 9.152432,38.721762 9.6935769,38.409582 10.19179,38.122167 10.19803,38.110739 10.11878,37.630915 10.074542,37.363082 10.016892,37.12087 9.9906681,37.092663 9.9644433,37.064459 9.7173543,37.150977 9.4415802,37.284931 8.8612581,37.566814 6.2586206,38.246154 4.3929848,38.602707 2.8931949,38.889348 0.12348364,39.228309 0.03161581,39.136459 -0.08729414,39.017572 0.06744125,38.983186 1.5861799,38.790976 3.5861782,38.537859 7.5523265,37.743668 8.6774004,37.371011 9.5105228,37.09506 10.087229,36.714181 9.8680245,36.584676 9.4988815,36.36659 8.2480653,36.398115 5.9133372,36.684352 5.0593936,36.789044 4.8555444,36.558519 4.7509571,35.36986 4.5236148,32.786059 4.2490748,31.23631 3.708501,29.485304 3.5475071,28.96382 3.6039477,28.536871 3.8543315,28.382157 3.9208616,28.341049 4.6218649,28.129825 5.412117,27.912773 8.0924972,27.176576 8.7864476,26.791079 7.6968279,26.643592 6.8810312,26.53317 3.7775488,26.86117 1.2353293,27.326495 c -1.08601996,0.198783 -1.2279771,0.206926 -1.2279771,0.07043 0,-0.05535 0.24998111,-0.133201 0.55551353,-0.173 0.30553242,-0.0398 1.29229977,-0.206306 2.19281647,-0.370016 1.041467,-0.189335 2.3123466,-0.324376 3.4922637,-0.37108 l 1.8549612,-0.07342 -0.062603,-0.466641 C 8.0058711,25.686115 7.9079264,25.427363 7.8226459,25.367763 7.522633,25.158095 3.694217,25.361863 1.9813862,25.678648 1.1052653,25.840691 0.30269461,26.006168 0.19789559,26.046375 0.07472813,26.093625 0.007352,26.058325 0.007352,25.946525 c 0,-0.112436 0.17392024,-0.202154 0.49703873,-0.256402 C 2.7207475,25.318016 4.1472638,25.142819 5.4684003,25.080465 L 7.011617,25.00763 6.9430589,24.644867 C 6.9053505,24.445347 6.8228348,24.216333 6.7596875,24.135946 6.4980504,23.802884 3.4666521,24.02659 0.97219158,24.563044 0.26236434,24.715698 0.0073522,24.73364 0.0073522,24.63093 c 0,-0.268672 3.5451125,-0.868959 5.1547912,-0.87285 l 0.8861092,-0.0021 -0.05107,-0.347889 C 5.9543869,23.116535 5.8789293,23.047578 5.5313837,22.982392 4.7536764,22.836523 1.0653996,23.258125 0.19378592,23.592525 0.02401269,23.65766 0.0073522,22.708926 0.0073522,12.975924 V 2.2877754 L 1.7323676,2.8461231 C 3.5802455,3.4442392 3.9340103,3.6768572 3.8292502,4.2249288 3.7980571,4.3881169 3.5228019,5.2299808 3.21757,6.0957378 2.6782745,7.6253904 2.4878083,8.7678783 2.7490069,8.906354 2.9620169,9.019283 3.865972,7.6616618 4.6953475,5.9832079 5.6321308,4.0873873 5.9381105,3.3816688 6.6842927,1.3958613 6.9678162,0.64132393 7.2632393,0.02307866 7.3407893,0.02198225 7.5111721,0.01959586 7.4531645,0.19379011 6.4556438,2.6803767 5.4674142,5.1438029 4.1619776,7.6963454 3.3825094,8.6893284 3.1985611,8.9236651 3.0480576,9.1429339 3.0480576,9.176593 c 0,0.033657 0.2452993,0.1548583 0.5451093,0.2693331 L 4.1382763,9.6540619 4.5736758,9.1635306 C 5.5712545,8.0396341 7.1958433,4.7969134 8.2144787,1.8963965 8.7964359,0.23929949 8.9456744,-0.08581506 9.0681651,0.03664972 9.1424482,0.11091778 8.4999255,2.0172315 7.8520751,3.6446908 7.2873212,5.0634036 6.014441,7.5378187 5.425202,8.36241 5.2024173,8.6741779 5.0396156,8.9487332 5.0634199,8.9725326 5.0872225,8.9963303 5.2938356,9.0939779 5.5225571,9.1895242 5.9255798,9.3578828 5.9475785,9.3534874 6.2353657,9.0471047 7.0523294,8.1773528 8.3665598,5.6396086 9.3056195,3.1185245 9.7653714,1.884233 10.182019,0.50687327 10.182019,0.22131051 c 0,-0.11072638 0.05725,-0.20132134 0.127231,-0.20132134 0.178326,0 0.04742,0.68417332 -0.4256895,2.22480953 C 9.2791272,4.2130812 7.929123,7.1355711 7.1472215,8.1684263 L 6.7002455,8.7588608 7.1233499,8.9605835 7.5464543,9.1623056 7.9244036,8.712784 C 8.976848,7.4610374 11.234184,2.1112124 11.23446,0.86803692 11.234561,0.4197673 11.19758,0.35526401 10.854483,0.20525142 10.522216,0.05997405 11.8185,0.03786546 21.157653,0.02952723 L 31.84091,0.0199905 31.596908,0.43345724 c -0.174472,0.29564482 -0.202758,0.42508847 -0.09926,0.45425151 0.07961,0.0224321 0.478568,0.12734845 0.886583,0.23314835 1.79963,0.4666501 6.709936,2.9672474 8.572165,4.3654174 0.449683,0.3376232 0.832456,0.6138605 0.850607,0.6138605 0.01815,0 0.128311,-0.211316 0.244802,-0.4695903 0.211603,-0.4691674 0.21154,-0.4698616 -0.06996,-0.7701268 C 40.974948,3.7863837 36.999633,1.5669736 34.15681,0.49171482 33.363372,0.19160789 33.043916,0.02596531 33.254053,0.02362002 34.20271,0.01303151 39.203336,2.4536929 40.933883,3.7719222 l 0.75414,0.5744585 0.21819,-0.3445376 C 42.078069,3.7304736 42.097222,3.6065253 41.996406,3.4181886 41.798517,3.0485051 39.035098,1.2797868 37.665684,0.64632209 36.80356,0.24751929 36.515906,0.06738248 36.699495,0.04126651 37.125752,-0.01936818 40.512678,1.8494663 41.36189,2.6138785 41.605555,2.8332114 41.610805,2.8321875 41.811316,2.5262321 42.011552,2.220697 42.0091,2.211368 41.623247,1.8106879 41.408225,1.5874025 40.758648,1.1126514 40.179745,0.75568514 39.600841,0.39871844 39.105265,0.0871555 39.078464,0.06332296 39.051664,0.03948997 42.419829,0.02076121 46.563276,0.02170693 l 7.533542,0.0017235 0.29767,0.61214537 c 0.280104,0.5760198 0.32115,0.6102093 0.695529,0.5793413 0.218822,-0.018044 0.414484,-0.049426 0.434804,-0.069741 0.02032,-0.020315 -0.04269,-0.22748504 -0.140015,-0.4603757 -0.193272,-0.46246688 -0.236502,-0.78087346 -0.08153,-0.60049139 0.05249,0.06109385 0.194368,0.34785466 0.315289,0.63724625 0.298192,0.71363554 0.620738,1.16771384 0.79222,1.11527954 0.07809,-0.023877 0.285653,-0.074855 0.461247,-0.1132816 L 57.191295,1.6536867 56.945369,1.0414631 C 56.609,0.20408695 56.56476,0.01999933 56.699893,0.01999933 c 0.06376,0 0.232282,0.36180047 0.374498,0.80400071 0.286321,0.89027496 0.622135,1.50954286 0.870195,1.60471306 0.08937,0.034289 0.371274,0.00614 0.626445,-0.062559 L 59.034978,2.2412523 58.643732,1.276783 C 58.239547,0.28042012 58.178058,0.01999933 58.346988,0.01999933 c 0.05414,0 0.161257,0.22362086 0.238034,0.49693523 0.221433,0.78826594 0.625279,1.60773054 0.792317,1.60773054 0.223126,0 0.313447,-0.4998126 0.244811,-1.35470845 L 59.56194,0.01999933 h 14.781753 14.781753 l -0.07289,0.62009384 -0.0729,0.62009383 0.481201,0.188981 0.481202,0.1889811 V 1.3485449 c 0,-0.44423658 0.24802,-1.32855573 0.372611,-1.32855573 0.06103,0 0.08389,0.09207938 0.0508,0.20462031 -0.186977,0.63611801 -0.421648,2.07220152 -0.366834,2.24486232 0.03523,0.1109349 0.250571,0.2589394 0.478563,0.3288983 0.466283,0.1430752 0.4203,0.2034532 0.632667,-0.8307676 0.203579,-0.99143461 0.522198,-1.86774167 0.700737,-1.9272415 0.10646,-0.03547769 0.132972,0.01737205 0.08457,0.16859463 -0.61053,1.90763857 -0.80256,2.66912617 -0.820625,3.25414487 l -0.02148,0.695354 0.540144,0.2030502 0.540144,0.2030501 0.07146,-0.6032322 C 92.287174,3.26608 93.152355,0.5033666 93.389091,0.17968123 93.697203,-0.2415983 93.673758,0.10001241 93.334634,0.97318048 92.849839,2.22142 92.397992,3.8327685 92.397992,4.3133729 c 0,0.3246156 0.03806,0.3940724 0.184993,0.3376975 0.101743,-0.039035 0.204472,-0.070973 0.228284,-0.070973 0.111238,0 0.804832,-1.1381654 1.465011,-2.404028 0.770479,-1.47736984 1.090463,-1.92222868 1.382649,-1.92222868 0.0987,0 1.113953,0.46039558 2.256114,1.02310108 l 2.076656,1.0231016 0.004,10.6453646 0.004,10.645366 -0.717242,0.159086 c -0.394482,0.0875 -0.986541,0.295664 -1.315689,0.462591 -0.54166,0.274705 -0.59483,0.336707 -0.560335,0.65341 0.02095,0.192447 0.05607,0.367866 0.07803,0.389819 0.02197,0.02195 0.346886,-0.07011 0.722065,-0.204572 1.267911,-0.454426 1.793181,-0.582017 1.793181,-0.435575 0,0.07434 -0.559743,0.292804 -1.243874,0.485491 -0.684131,0.192686 -1.39999,0.444919 -1.590799,0.560519 -0.31549,0.191136 -0.339597,0.249409 -0.266046,0.643093 0.04448,0.2381 0.09761,0.449944 0.11805,0.470764 0.02047,0.02082 0.186796,-0.03937 0.369658,-0.133743 0.360345,-0.185975 2.244396,-0.781054 2.472857,-0.781054 0.07709,0 0.140154,0.04436 0.140154,0.09858 0,0.05422 -0.434175,0.217034 -0.964838,0.36181 -1.36477,0.372336 -2.744246,0.921103 -2.821515,1.122421 -0.03611,0.09409 -0.04539,0.236846 -0.02064,0.317233 0.02475,0.08039 0.07599,0.287848 0.113828,0.461024 l 0.0688,0.314869 0.633794,-0.280235 c 0.641432,-0.283613 2.561145,-0.875667 2.839315,-0.875667 0.08319,0 0.151059,0.03946 0.150834,0.08769 -2.3e-4,0.04823 -0.551699,0.237335 -1.225495,0.420228 -1.301589,0.353299 -2.182293,0.738779 -2.259257,0.988865 -0.03735,0.121308 0.311109,0.145004 1.719347,0.116927 L 100,28.95914 l -1.15e-4,4.453906 -1.19e-4,4.453905 -0.497039,0.148461 c -0.27337,0.08165 -0.69439,0.2489 -0.935599,0.371662 -0.750416,0.381912 -0.525986,0.569226 0.682027,0.569226 0.471747,0 0.750611,0.04819 0.750611,0.129704 0,0.08752 -0.288319,0.115148 -0.886447,0.08495 l -0.886446,-0.04475 0.0678,0.338903 c 0.03731,0.186399 0.0678,0.406106 0.0678,0.488238 0,0.194889 0.617285,0.406067 1.186951,0.406067 0.247693,0 0.450349,0.05362 0.450349,0.119152 0,0.06871 -0.123774,0.08809 -0.292377,0.04579 -0.261032,-0.0655 -0.292181,-0.03752 -0.290581,0.260855 0.0022,0.391625 0.09664,0.556732 0.378295,0.660629 0.192512,0.07101 0.204663,0.614076 0.204663,9.144725 v 9.069236 L 98.68072,58.311341 c -0.725596,-0.741651 -1.413012,-1.348457 -1.527706,-1.348457 -0.114694,0 -0.326089,0.08865 -0.469766,0.197001 l -0.261228,0.197006 0.924615,0.883186 c 1.313067,1.254234 2.721955,3.017703 2.630378,3.292377 -0.02453,0.07364 -0.381097,-0.300955 -0.792328,-0.832431 -0.936752,-1.210666 -2.705773,-3.068737 -3.230137,-3.392743 l -0.39663,-0.245078 -0.352035,0.250615 c -0.193617,0.137841 -0.352036,0.278324 -0.352036,0.312185 0,0.03385 0.398474,0.433612 0.885497,0.888343 1.399773,1.306961 4.260314,4.889532 4.260314,5.335655 0,0.263873 -0.185033,0.113773 -0.525363,-0.42617 -0.530208,-0.841186 -2.567873,-3.368472 -3.500616,-4.341758 -0.99147,-1.034567 -1.887477,-1.768577 -2.153646,-1.764264 -0.106787,0.0018 -0.367997,0.147351 -0.580461,0.323599 l -0.386296,0.320457 0.761944,0.630171 c 1.832539,1.515616 6.40718,7.385791 6.37756,8.183695 -0.0057,0.154041 -0.03037,0.149043 -0.146188,-0.02961 -0.07662,-0.118215 -0.447692,-0.696995 -0.824604,-1.286186 -0.722666,-1.129665 -1.079387,-1.605171 -2.583007,-3.443109 -2.021877,-2.471423 -3.31897,-3.766752 -3.771891,-3.766752 -0.384996,0 0.209874,1.217555 1.561273,3.195552 0.922617,1.350393 0.860527,1.603363 -0.593831,2.41947 -0.762722,0.427999 -3.118148,2.285253 -4.218867,3.326573 -0.83557,0.790479 -1.051009,0.920586 -1.385412,0.836674 -0.13893,-0.03487 -0.802627,-0.651883 -1.474885,-1.371164 -1.128557,-1.207497 -2.001646,-1.976185 -2.244582,-1.976185 -0.624685,0 1.233699,3.022432 3.918202,6.372459 1.287192,1.606311 3.247257,3.566242 3.566477,3.566242 0.505277,0 0.244634,-0.605309 -1.169108,-2.715078 -1.165275,-1.738982 -1.197922,-2.106018 -0.231258,-2.600005 0.297508,-0.152031 0.928844,-0.557369 1.402982,-0.900753 0.474134,-0.34338 0.993048,-0.7113 1.153142,-0.8176 0.160094,-0.106301 0.917149,-0.77716 1.682337,-1.490801 1.718034,-1.602299 1.826332,-1.627268 2.711652,-0.625209 0.326698,0.369776 1.057595,1.129674 1.62422,1.688656 l 1.030226,1.016346 v 15.499432 c 0,8.524692 -0.02378,15.49944 -0.05281,15.49944 -0.252462,0 -3.090646,-0.992129 -3.249591,-1.135945 -0.300399,-0.271801 -0.25644,-0.684863 0.209976,-1.973091 0.453999,-1.253934 0.753421,-2.514643 0.753421,-3.172257 v -0.419723 l -0.248117,0.222744 c -0.516235,0.463428 -1.22332,1.677593 -2.267987,3.894437 -0.593919,1.260337 -1.145476,2.501991 -1.22568,2.759226 -0.152903,0.490399 -0.306654,0.726877 -0.407221,0.626326 -0.219674,-0.219627 2.038536,-5.080324 3.026509,-6.51443 0.364394,-0.52894 0.632247,-1.010704 0.595232,-1.070585 -0.03704,-0.05988 -0.276286,-0.17148 -0.53171,-0.24799 -0.428199,-0.128264 -0.487535,-0.117379 -0.761175,0.139639 -0.769877,0.723113 -3.01274,5.065051 -3.645708,7.057693 -0.115949,0.36503 -0.275694,0.649925 -0.364924,0.650831 -0.103489,8.84e-4 -0.131195,-0.06958 -0.07963,-0.203011 0.04349,-0.11254 0.185532,-0.520322 0.315648,-0.906175 0.248785,-0.737766 0.363006,-1.001843 1.288386,-2.978668 0.589119,-1.258499 1.066904,-2.082574 1.636163,-2.822046 l 0.324962,-0.422122 -0.461987,-0.208283 c -0.567178,-0.255706 -0.625245,-0.217042 -1.40006,0.932191 -0.813147,1.206096 -1.608141,2.864015 -2.56725,5.353866 -0.445327,1.156066 -0.59331,1.435711 -0.59331,1.12118 0,-0.366169 0.398359,-1.485507 1.064049,-2.989844 0.926329,-2.09333 1.218975,-2.655997 1.767487,-3.398337 0.255132,-0.345285 0.446034,-0.640932 0.424234,-0.656987 -0.02179,-0.01604 -0.212022,-0.09783 -0.422714,-0.181724 -0.337913,-0.134548 -0.410682,-0.127548 -0.617276,0.05937 -0.287965,0.260555 -1.251256,1.929443 -1.751473,3.034404 -0.472873,1.044564 -1.516859,3.860785 -1.516859,4.091823 0,0.155743 -1.704482,0.175965 -14.832766,0.175965 H 59.574704 l -0.216133,-1.40889 -0.216132,-1.408895 0.283937,-0.275372 c 0.238848,-0.231652 0.516055,-0.30495 1.745811,-0.461652 1.692485,-0.215659 4.252221,-0.772908 5.427512,-1.181551 0.687685,-0.239104 0.860659,-0.261103 1.110098,-0.141186 0.381464,0.183394 0.460143,0.358758 1.17255,2.613594 0.597514,1.891198 0.846431,2.358473 1.077424,2.022587 0.185377,-0.269566 0.0282,-2.20462 -0.369769,-4.552591 -0.402292,-2.373427 -0.738609,-3.8098 -1.283218,-5.480469 -0.704534,-2.161276 -1.07048,-2.711278 -1.231825,-1.851399 -0.07242,0.385964 0.101478,2.329119 0.304421,3.401581 0.253294,1.338559 0.02537,1.6325 -1.359412,1.753274 -1.274975,0.111192 -4.798205,0.835798 -5.77267,1.187234 -1.424562,0.513764 -1.579715,0.424212 -2.032909,-1.173349 -0.433677,-1.528762 -1.008528,-3.061617 -1.211251,-3.229827 -0.241392,-0.200298 -0.387769,0.0461 -0.390574,0.65746 -0.0028,0.617651 0.31026,3.250977 0.535232,4.501646 0.144202,0.801646 0.792488,3.442172 1.169809,4.764728 0.04128,0.144695 0.02459,0.263082 -0.0371,0.263082 -0.125677,0 -0.608904,-1.531816 -0.959023,-3.040074 -0.412283,-1.776054 -0.85141,-4.824476 -0.868796,-6.031182 l -0.01698,-1.178762 -0.584751,0.129908 -0.584751,0.129912 0.01,1.867334 c 0.0086,1.61196 0.05977,2.107185 0.37418,3.621218 0.200321,0.964637 0.542134,2.372136 0.759587,3.127769 0.266877,0.927374 0.349738,1.373877 0.254964,1.373877 -0.139278,0 -0.696063,-1.757114 -1.053455,-3.324518 -0.254452,-1.115944 -0.632328,-4.060672 -0.635226,-4.950213 l -0.0024,-0.733016 -0.321613,0.07686 c -0.557448,0.133232 -0.697002,0.257832 -0.76619,0.684099 -0.172293,1.061499 0.465732,4.734938 1.396808,8.042164 0.03168,0.11254 0.0083,0.20462 -0.05207,0.20462 -0.143635,0 -0.792356,-2.230521 -1.150736,-3.956625 -0.155702,-0.749924 -0.315629,-1.929129 -0.355394,-2.620453 -0.06309,-1.096883 -0.09864,-1.256953 -0.279113,-1.256953 -0.653433,0 -0.773687,0.413027 -0.583119,2.002811 0.186714,1.557642 0.686975,4.079763 0.996791,5.025415 l 0.263995,0.805805 h -7.578966 c -7.300709,0 -7.59329,-0.0084 -7.965857,-0.227719 -0.547131,-0.322137 -2.482269,-1.115077 -3.304544,-1.35407 -0.691642,-0.201023 -0.69392,-0.200873 -0.905199,0.05999 -0.335026,0.41365 -0.257494,0.529501 0.460652,0.688306 0.827461,0.182979 2.20439,0.811303 1.80692,0.824538 -0.14792,0.0049 -0.434292,-0.07653 -0.636384,-0.181016 -0.620853,-0.320988 -1.979861,-0.745438 -2.386757,-0.745438 -0.308981,0 -0.421381,0.06872 -0.564267,0.344975 -0.228688,0.442141 -0.227607,0.448566 0.08471,0.503661 0.144726,0.02554 -4.933836,0.05723 -11.285693,0.07044 l -11.548832,0.024 -0.0012,-0.500776 c -0.0011,-0.471264 -0.02815,-0.512093 -0.4585635,-0.692774 L 9.381839,98.613726 9.306404,99.162088 c -0.041488,0.3016 -0.121726,0.623246 -0.1783037,0.714773 -0.1796346,0.290589 -0.2610483,0.02921 -0.122054,-0.391855 0.1867842,-0.565844 0.3427034,-1.617041 0.2685171,-1.81033 -0.054058,-0.140842 -1.0797438,-0.665189 -1.134454,-0.579951 -0.011355,0.01768 -0.087145,0.40049 -0.1684197,0.850652 -0.2115293,1.171625 -0.4678701,2.046203 -0.5997457,2.046203 -0.1573247,0 -0.14787,-0.05886 0.1690448,-1.052333 0.153858,-0.482321 0.3170443,-1.126872 0.3626365,-1.432343 0.075323,-0.504665 0.061584,-0.555398 -0.1504041,-0.555398 -0.3035354,0 -0.7374453,0.579058 -1.4548761,1.941551 L 5.7199121,99.99158 3.7115208,99.98398 1.70313,99.97638 Z m 70.46249247,-0.0853 c 0.332688,-0.268593 0.09447,-3.505761 -0.458305,-6.227998 -0.479928,-2.363504 -1.539101,-5.57478 -1.966173,-5.961194 -0.170468,-0.154236 -0.330889,-0.181962 -0.696021,-0.120287 -0.260971,0.0441 -0.502896,0.126094 -0.537612,0.182254 -0.0347,0.05616 0.08919,0.406738 0.275341,0.779073 1.009973,2.020098 2.252052,7.679122 2.286039,10.415377 l 0.01494,1.202817 0.467799,-0.07601 c 0.257289,-0.04181 0.533585,-0.129121 0.613988,-0.194031 z m 1.364072,-1.260846 c 0.194001,-0.194871 0.112042,-2.09192 -0.157791,-3.652369 -0.460117,-2.66084 -1.44737,-6.046645 -1.920217,-6.585426 -0.229433,-0.261425 -0.289229,-0.27508 -0.698872,-0.159592 -0.269034,0.07585 -0.424049,0.181441 -0.388086,0.264359 0.608953,1.403986 0.821222,1.989664 1.111229,3.066028 0.47123,1.749 0.965665,4.652325 1.041731,6.11703 l 0.06289,1.210962 0.41104,-0.06669 c 0.226069,-0.03668 0.468206,-0.124115 0.53808,-0.194301 z m 1.112591,-1.003752 c 0.135067,-0.137288 0.03134,-2.239222 -0.160938,-3.261844 -0.36218,-1.926058 -0.999165,-4.318314 -1.32319,-4.969348 -0.296606,-0.595953 -0.348548,-0.641763 -0.70857,-0.624939 -0.21368,0.01 -0.413135,0.04278 -0.443241,0.07288 -0.0301,0.0301 0.110045,0.469169 0.31144,0.975716 0.644889,1.621974 1.161828,3.900726 1.371582,6.046146 l 0.192419,1.968163 0.346748,-0.06933 c 0.190713,-0.03814 0.376899,-0.09999 0.41375,-0.137443 z M 28.497815,87.137433 c 2.463358,-0.697684 5.840067,-2.193837 6.474024,-2.868514 0.243132,-0.258747 0.255194,-0.322008 0.122469,-0.642368 -0.175151,-0.422763 -0.181132,-0.423651 -0.703598,-0.104237 -1.913145,1.169624 -6.000761,2.763226 -8.147382,3.176354 l -0.721046,0.138769 0.159886,0.380007 c 0.146049,0.347118 0.204526,0.38001 0.67566,0.38001 0.283675,0 1.24667,-0.20701 2.139987,-0.460021 z m -2.235144,-0.705621 c 1.033147,-0.252427 2.092547,-0.586654 3.859357,-1.217572 1.436764,-0.513066 4.532529,-2.037603 5.083196,-2.503268 l 0.405188,-0.342642 -0.218288,-0.483973 c -0.120057,-0.266185 -0.240282,-0.483974 -0.267165,-0.483974 -0.02688,0 -0.268872,0.150997 -0.537751,0.335549 -1.048078,0.719369 -4.067231,2.075078 -6.453333,2.897783 -1.022458,0.352532 -3.194309,0.859074 -3.683364,0.859074 -0.326863,0 -0.358268,0.0289 -0.286008,0.263082 0.04464,0.144695 0.154798,0.407777 0.244785,0.584631 0.202352,0.397679 0.532829,0.413959 1.853383,0.09131 z m -1.410442,-1.183129 c 0.84077,-0.150864 3.352093,-0.939279 5.152849,-1.617704 1.675468,-0.631218 4.903352,-2.240575 5.484231,-2.734324 l 0.455372,-0.387068 -0.201632,-0.606935 c -0.1109,-0.333812 -0.221081,-0.606934 -0.244847,-0.606934 -0.02377,0 -0.26952,0.151182 -0.546115,0.33596 -2.431312,1.624227 -8.64392,4.018993 -11.630557,4.483217 -0.813111,0.126386 -0.835901,0.138937 -0.732529,0.403393 0.05868,0.150118 0.158014,0.404485 0.220745,0.565257 0.101389,0.259856 0.18178,0.292315 0.723899,0.292315 0.335414,0 0.928777,-0.05723 1.318584,-0.127177 z M 24.493353,83.61191 c 2.475199,-0.581705 6.822308,-2.246386 9.1138,-3.490032 1.478361,-0.802341 1.844415,-1.098479 1.626789,-1.31606 -0.182231,-0.182192 -1.466262,0.05296 -3.083874,0.564753 -2.481033,0.784981 -2.755668,0.691271 -3.132155,-1.068724 -0.324181,-1.515478 -1.283522,-3.975848 -2.354336,-6.038049 -0.36552,-0.703924 -0.416503,-1.029887 -0.218841,-1.399146 0.07106,-0.132754 0.928471,-0.617846 2.017391,-1.141367 1.881985,-0.90481 2.653978,-1.405506 2.653978,-1.721305 0,-0.910599 -8.98937,2.234551 -12.309008,4.306602 -0.523772,0.326927 -0.683424,0.5803 -0.454702,0.721632 0.193331,0.119457 2.262276,-0.288731 3.513909,-0.693273 0.693522,-0.224153 1.396852,-0.407552 1.562955,-0.407552 0.399762,0 0.727198,0.431933 0.909568,1.199847 0.332235,1.398961 1.459328,4.444152 2.106798,5.692169 1.046428,2.017022 0.99114,2.192113 -0.959638,3.039119 -1.091381,0.473866 -2.940596,1.531613 -3.084427,1.76429 -0.108552,0.175603 0.04757,0.347936 0.315205,0.347936 0.132644,0 0.932108,-0.162376 1.776588,-0.36084 z m 63.344191,-7.917863 0.26041,-0.210825 -1.042863,-1.046128 c -0.907354,-0.910201 -2.330077,-2.625354 -3.326258,-4.009952 -0.168978,-0.234865 -0.501481,-0.808501 -0.738892,-1.274744 -0.237412,-0.466239 -0.467548,-0.845959 -0.511418,-0.84382 -0.14755,0.0072 -0.606031,0.441549 -0.606031,0.574135 0,0.404936 1.540021,2.848089 2.582928,4.09767 0.999501,1.197566 2.733664,2.924484 2.936757,2.924484 0.101731,0 0.302145,-0.09487 0.445367,-0.21082 z m 1.615571,-0.234393 0.388183,-0.321995 -0.521743,-0.37461 c -0.51715,-0.371314 -1.775337,-1.712126 -2.768756,-2.950584 -0.283717,-0.353703 -0.618447,-0.744753 -0.743843,-0.869005 -0.372576,-0.36917 -2.274851,-3.327691 -2.417494,-3.759814 -0.07244,-0.219446 -0.1671,-0.397104 -0.210352,-0.394789 -0.04327,0.0022 -0.234715,0.13172 -0.425463,0.28757 -0.337559,0.275796 -0.342615,0.29521 -0.189373,0.726581 0.325815,0.917126 2.141853,3.711202 3.06721,4.719073 0.151683,0.165209 0.642834,0.712439 1.09145,1.216065 0.771632,0.866265 2.082825,2.053491 2.260353,2.04665 0.0449,-0.0018 0.256325,-0.148045 0.469828,-0.325142 z m 1.82098,-0.246103 0.428605,-0.340543 -0.383285,-0.26526 C 90.829842,74.268924 89.470287,72.87007 88.318564,71.520149 86.721519,69.648268 85.243845,67.530583 84.350653,65.833642 l -0.469797,-0.892541 -0.41943,0.34566 c -0.230688,0.190111 -0.419434,0.392468 -0.419434,0.449684 0,0.618969 1.731056,3.489869 3.275873,5.432927 1.588528,1.998038 3.971828,4.384717 4.37851,4.384717 0.08202,0 0.341988,-0.153242 0.57772,-0.340538 z M 63.748104,73.500276 c 0.220231,-0.579133 0.20278,-0.587936 -1.435532,-0.724155 -1.036113,-0.08615 -2.106987,-0.270157 -3.231715,-0.555314 -1.529955,-0.38789 -3.905864,-1.165372 -4.448429,-1.455681 -0.176957,-0.09469 -0.230403,-0.0679 -0.287203,0.143957 -0.158307,0.590442 -0.097,0.668848 0.891858,1.140567 1.597663,0.762143 5.706267,1.725211 7.42923,1.741439 0.934834,0.0088 0.971614,-8.84e-4 1.081791,-0.290813 z m 0.96147,-0.898565 c 0.104732,-0.08039 0.224385,-0.335372 0.265895,-0.566636 l 0.07547,-0.420482 -1.018485,-0.07827 C 62.667997,71.431464 59.852489,70.94194 58.482451,70.57136 57.188793,70.221439 54.564563,69.294521 54.18898,69.054838 c -0.247481,-0.15793 -0.26428,-0.144323 -0.387719,0.313997 -0.167607,0.622313 -0.01445,0.797077 1.107899,1.264217 3.033335,1.262517 9.125924,2.486369 9.800414,1.968659 z m -45.99019,-0.534044 c 0.535859,-0.367933 2.950174,-1.568045 4.210207,-2.092813 2.607054,-1.085768 6.760888,-2.37172 7.661043,-2.37172 h 0.394323 l -0.186974,-0.555402 c -0.102837,-0.305467 -0.244368,-0.59711 -0.314514,-0.648095 -0.437643,-0.318084 -4.354342,0.712537 -7.261503,1.910753 -3.028222,1.248114 -4.426311,1.965017 -5.260928,2.697671 -0.395756,0.347405 -0.396312,0.349363 -0.231414,0.816636 0.280409,0.794598 0.211137,0.777593 0.98976,0.24297 z m 47.337731,-0.820614 c 0.142881,-0.09067 0.37795,-0.738469 0.37795,-1.041549 0,-0.103375 -0.234003,-0.147135 -0.789415,-0.147621 -1.282038,-0.0013 -4.267983,-0.501292 -6.748373,-1.13042 -1.437689,-0.364654 -4.413934,-1.380489 -5.003813,-1.707875 -0.24049,-0.13347 -0.461274,-0.218664 -0.490631,-0.189312 -0.02935,0.02934 -0.103878,0.278095 -0.165607,0.552768 -0.09933,0.441996 -0.08326,0.526796 0.13978,0.737634 0.40489,0.382742 1.011698,0.649991 2.730392,1.20253 3.15537,1.014411 4.706592,1.393657 6.702208,1.638589 1.44173,0.176951 3.037016,0.218832 3.247509,0.08526 z M 18.980251,70.015918 c 0.691498,-0.441474 2.738036,-1.431172 4.06629,-1.966449 1.916223,-0.772219 5.562614,-1.849445 6.260346,-1.849445 0.01988,0 -0.04654,-0.210466 -0.147609,-0.467706 -0.177968,-0.452968 -0.201021,-0.467702 -0.731727,-0.467702 -1.931517,0 -8.513341,2.492971 -10.020273,3.795344 -0.413705,0.357544 -0.414825,0.361123 -0.26706,0.854223 0.08161,0.27234 0.16535,0.495172 0.186081,0.495172 0.02073,0 0.315009,-0.177049 0.653952,-0.393437 z m 47.543783,-0.398505 c 0.03041,-0.09181 -0.279717,-0.300434 -0.809266,-0.544434 -0.907711,-0.418241 -3.256539,-1.235996 -3.550135,-1.235996 -0.287938,0 -0.641476,-0.445584 -0.641476,-0.808492 0,-0.187429 0.155289,-0.753061 0.345082,-1.256953 0.460838,-1.223467 1.124587,-3.991629 1.355161,-5.651661 0.265815,-1.913794 0.293185,-1.930034 2.559015,-1.518258 1.325377,0.240862 3.27913,0.312264 3.395451,0.124088 0.162848,-0.263431 -1.868572,-1.193709 -3.58299,-1.640804 -0.470575,-0.122722 -1.460807,-0.384523 -2.200517,-0.581789 -3.31127,-0.883031 -7.074211,-1.391567 -7.218692,-0.975553 -0.115429,0.332358 1.38681,1.001803 3.865099,1.722405 1.139731,0.331395 1.36603,0.789233 0.905493,1.831945 -0.457553,1.035946 -1.322368,4.565624 -1.529112,6.240973 -0.09895,0.801765 -0.190819,1.117662 -0.386081,1.327496 -0.286989,0.308402 -0.532462,0.304844 -2.389208,-0.03465 -1.538898,-0.281369 -2.801183,-0.357482 -3.013059,-0.18168 -0.163273,0.135476 -0.162633,0.170684 0.0065,0.357526 0.559212,0.617792 6.199414,2.247305 9.642122,2.785706 1.643461,0.257019 3.1686,0.275871 3.246624,0.04013 z M 18.995619,68.367531 c 0.448439,-0.34197 2.746318,-1.440669 4.226347,-2.02077 1.262116,-0.494691 3.822877,-1.197982 4.364277,-1.198619 0.347565,-3.49e-4 0.379789,-0.02784 0.309435,-0.263537 -0.04319,-0.144695 -0.155817,-0.385447 -0.250273,-0.535007 -0.150261,-0.237919 -0.23284,-0.26253 -0.660286,-0.196789 -2.050694,0.315388 -6.756266,2.152923 -8.294973,3.2392 -0.320341,0.226151 -0.417424,0.643924 -0.250625,1.078504 0.09219,0.240186 0.110545,0.236787 0.556098,-0.102982 z M 69.416551,57.669826 c 0.0438,-0.318584 0.04146,-0.641052 -0.0052,-0.716594 -0.13196,-0.213472 -1.863228,-0.976313 -3.093214,-1.362953 -2.908239,-0.914182 -7.133492,-1.784257 -8.654316,-1.782113 -0.999704,0.0013 -1.129782,0.06719 -1.275267,0.644834 -0.07047,0.279822 -0.128135,0.556387 -0.128135,0.614593 0,0.0582 0.715912,0.141743 1.590916,0.185648 1.028777,0.05162 2.17967,0.202238 3.257156,0.426263 2.866362,0.595961 6.682171,1.770358 7.782549,2.395239 0.424296,0.240951 0.438158,0.230269 0.525535,-0.404917 z m -0.543663,-2.424212 c -0.227586,-0.274166 -1.74235,-0.929562 -3.139524,-1.358388 -2.211188,-0.678663 -5.71362,-1.366064 -6.965423,-1.367058 -0.704853,-4.42e-4 -0.93058,0.148858 -1.081438,0.71586 -0.101991,0.383334 -0.09199,0.418573 0.104234,0.36727 1.056952,-0.276339 8.121175,1.341931 10.106205,2.315128 l 0.81865,0.40136 0.144389,-0.457891 c 0.107251,-0.340127 0.110571,-0.498628 0.01291,-0.616281 z m -0.523383,-0.884336 c 0.17194,-0.641457 0.106186,-0.743423 -0.716663,-1.111272 -2.222711,-0.993645 -5.673517,-1.785481 -7.772114,-1.783412 -0.656235,8.83e-4 -0.805193,0.03792 -0.906362,0.226937 -0.258927,0.483708 -0.165418,0.560797 0.785298,0.647428 2.08051,0.189572 6.40226,1.244075 7.626124,1.860763 0.955547,0.481485 0.899849,0.472452 0.983717,0.159556 z M 31.132967,47.255301 31.559155,47.136949 31.228058,46.525167 C 30.827116,45.784333 29.989093,43.44939 29.49627,41.69997 c -0.598505,-2.124565 -1.301856,-6.050628 -1.30323,-7.274549 -3.51e-4,-0.337623 -0.03001,-0.61386 -0.06585,-0.61386 -0.03584,0 -0.299581,0.05901 -0.586093,0.131144 -0.637361,0.160456 -0.692229,0.318042 -0.599541,1.72194 0.122036,1.848409 0.313916,3.046453 0.775819,4.843985 0.896808,3.490001 1.661614,5.646805 2.298313,6.481388 0.316025,0.414242 0.458805,0.448147 1.117281,0.265283 z m 0.958258,-1.353518 c -0.01043,-0.572402 -0.152736,-1.714516 -0.316245,-2.538038 -0.311945,-1.571117 -0.290045,-1.950098 0.12494,-2.162155 0.115644,-0.05909 0.710223,-0.173791 1.321288,-0.254885 1.460816,-0.193859 3.425201,-0.681147 5.401601,-1.339923 0.880397,-0.293456 1.70345,-0.533558 1.82901,-0.533558 0.430076,0 0.680793,0.410884 1.177949,1.930468 0.50808,1.552971 1.240334,3.10626 1.50297,3.188166 0.364068,0.11354 0.03909,-3.208738 -0.557887,-5.703265 -0.993751,-4.152508 -2.274714,-7.717349 -2.720218,-7.570206 -0.24902,0.08225 -0.228538,1.532648 0.04304,3.047648 0.403802,2.252631 0.40367,2.248491 0.08184,2.570258 -0.220216,0.22017 -0.498461,0.312853 -1.268892,0.422665 -2.184826,0.31141 -4.834673,0.982166 -6.333772,1.603264 -0.740092,0.30663 -1.219573,0.345497 -1.512621,0.122612 -0.106374,-0.0809 -0.335346,-0.612348 -0.508827,-1.180981 -0.40209,-1.317973 -1.278215,-3.442403 -1.518856,-3.682925 -0.16337,-0.163289 -0.197735,-0.164378 -0.295776,-0.0094 -0.168924,0.267081 -0.137534,0.94739 0.121063,2.623746 0.359042,2.327503 0.44776,2.764911 0.882371,4.35035 1.084728,3.957036 2.017582,6.346734 2.422773,6.206445 0.100531,-0.03482 0.137562,-0.359749 0.124255,-1.090316 z m -2.689248,0.658097 c 0.05423,-0.05243 0.01661,-0.220437 -0.0836,-0.373347 -0.279209,-0.426037 -1.069723,-2.601008 -1.529763,-4.208889 -0.454897,-1.589911 -0.957216,-4.299478 -1.075372,-5.800682 -0.06384,-0.811119 -0.106288,-0.958078 -0.263338,-0.911728 -0.102976,0.03039 -0.332414,0.08988 -0.509861,0.132205 -0.413228,0.09855 -0.490135,0.403356 -0.399211,1.582192 0.204216,2.647674 1.935498,8.721214 2.739062,9.608956 0.153007,0.169036 0.29051,0.201111 0.610486,0.142401 0.22715,-0.04167 0.457369,-0.118678 0.5116,-0.171108 z m -1.712789,-0.396778 c 0.02893,-0.0289 -0.02967,-0.211677 -0.13024,-0.406111 -0.289335,-0.559396 -0.975206,-2.536995 -1.34481,-3.877547 -0.487866,-1.769487 -0.687117,-2.839501 -0.780099,-4.189271 -0.04506,-0.654124 -0.120457,-1.189318 -0.167543,-1.189318 -0.04709,0 -0.24888,0.03264 -0.448426,0.07255 -0.295658,0.05912 -0.376141,0.143573 -0.434816,0.456279 -0.203513,1.084592 1.003047,6.363858 1.87508,8.204354 l 0.5303,1.11924 0.423972,-0.06879 c 0.233186,-0.03783 0.447647,-0.09246 0.476582,-0.121388 z m 16.582214,-2.190787 c 0.464491,-0.116938 0.517908,-0.167808 0.583446,-0.555645 0.11599,-0.686393 -0.130814,-3.135057 -0.468129,-4.644538 -0.587837,-2.630574 -1.559478,-5.779781 -2.175141,-7.049894 l -0.587677,-1.212378 -0.598409,0.07937 c -0.329125,0.04365 -0.635444,0.102249 -0.680709,0.130219 -0.04527,0.02797 0.0923,0.406283 0.305695,0.840698 1.225729,2.495224 2.685968,8.286696 2.830348,11.225476 0.03554,0.723479 0.112921,1.315415 0.171949,1.315415 0.05903,0 0.337411,-0.05792 0.618627,-0.128719 z M 2.7895292,42.574627 C 4.9199847,42.343319 8.4063846,41.5245 8.8723018,41.146022 9.0840861,40.973985 9.0062324,40.29324 8.7786173,40.326853 c -0.096484,0.01423 -0.6227601,0.18236 -1.1695023,0.373586 -1.2295162,0.430027 -4.4542711,0.960133 -5.9926777,0.985115 -1.21252026,0.01971 -1.22923114,0.02948 -1.06930294,0.625743 0.0645799,0.240783 0.24348833,0.314363 0.89746724,0.369109 0.1150998,0.0096 0.7203172,-0.03796 1.3449276,-0.105779 z M 45.984408,42.451069 c 0.620942,-0.317156 0.189721,-3.293764 -1.141503,-7.87949 -0.415665,-1.431858 -0.906612,-2.62088 -1.324336,-3.207397 -0.223139,-0.313304 -0.256571,-0.322527 -0.755426,-0.208395 l -0.521955,0.119415 0.328244,0.654318 c 0.405045,0.807414 1.312177,3.49588 1.715251,5.083486 0.362272,1.4269 0.748495,3.933359 0.748495,4.857481 0,0.369347 0.03413,0.705656 0.07584,0.74736 0.08237,0.08235 0.569225,-0.01038 0.875392,-0.166778 z m 1.258439,-1.227277 c 0.130706,-0.04128 0.150207,-0.277025 0.09834,-1.188724 -0.122905,-2.16014 -1.310776,-6.654696 -2.089278,-7.905208 -0.324885,-0.521868 -0.369337,-0.551207 -0.721041,-0.4759 -0.206147,0.04414 -0.397894,0.10157 -0.426107,0.127623 -0.02821,0.02605 0.06834,0.293555 0.214553,0.594448 0.896141,1.844145 2.115482,6.696667 2.116801,8.424075 4.87e-4,0.61115 0.0031,0.615525 0.322083,0.545635 0.176888,-0.03876 0.394981,-0.09363 0.484654,-0.121949 z m 30.171568,-1.734253 c 1.869381,-0.947088 6.349598,-4.96571 6.598957,-5.919067 0.03881,-0.148373 -0.04111,-0.35387 -0.215023,-0.55292 l -0.276786,-0.316787 -0.196371,0.292315 c -0.108006,0.160773 -0.913228,1.004901 -1.789375,1.875843 -1.603031,1.593492 -3.463978,3.086873 -4.874068,3.911349 l -0.761342,0.445155 0.258098,0.274678 c 0.326115,0.347057 0.553811,0.345143 1.25591,-0.01056 z m -0.660399,-1.070893 c 3.140284,-2.117437 6.989678,-5.750812 6.989678,-6.597439 0,-0.117312 -0.136027,-0.374918 -0.302278,-0.572458 l -0.302277,-0.359162 -0.498153,0.671737 c -1.413966,1.906683 -6.073095,5.820531 -8.049978,6.76229 l -0.439895,0.209565 0.375126,0.386949 c 0.209313,0.215911 0.493375,0.386949 0.642653,0.386949 0.147138,0 0.860447,-0.399796 1.585124,-0.888431 z m -1.97001,-0.443109 c 2.486555,-1.492136 6.821172,-5.323632 8.282315,-7.320974 0.490484,-0.670485 0.497684,-0.848407 0.05572,-1.377285 l -0.394075,-0.471582 -0.492796,0.676576 c -0.661796,0.908599 -3.344129,3.522783 -5.216117,5.083594 -1.615526,1.346981 -3.647958,2.757692 -4.326436,3.002981 -0.225525,0.08154 -0.41005,0.193103 -0.41005,0.247928 0,0.05483 0.14473,0.284423 0.321616,0.51022 0.282139,0.360146 0.370255,0.403008 0.717941,0.349244 0.21798,-0.03372 0.875825,-0.349023 1.461877,-0.700702 z m -1.926958,-0.733892 c 1.892114,-1.098638 4.1524,-2.879004 6.540638,-5.151886 2.501256,-2.380443 3.649765,-3.855315 2.796417,-3.591061 -0.727241,0.225202 -1.569503,0.757819 -3.270538,2.06817 -1.278625,0.984958 -1.586711,0.941496 -2.438149,-0.343952 -0.804037,-1.213888 -2.575423,-3.297051 -3.83361,-4.508359 -1.084589,-1.044175 -1.304832,-1.326197 -1.304832,-1.670833 0,-0.107411 0.634979,-0.829881 1.411062,-1.605487 1.424991,-1.424111 2.097444,-2.254847 2.097444,-2.591152 0,-0.291503 -0.310751,-0.217413 -1.149097,0.273975 -3.237926,1.897867 -9.630059,7.716282 -9.331552,8.494012 0.04947,0.128897 0.150705,0.161435 0.334642,0.107558 0.332984,-0.09753 1.591635,-0.916295 2.953567,-1.921319 1.363732,-1.006353 1.294251,-0.970418 1.702878,-0.880687 0.283933,0.06235 0.507461,0.308657 1.152704,1.270172 0.903357,1.346152 1.430745,1.960796 3.482316,4.058443 1.153199,1.179102 1.43929,1.537197 1.43929,1.801516 0,0.263135 -0.269215,0.604195 -1.330359,1.685377 -1.903284,1.939232 -2.521444,2.817057 -1.983757,2.817057 0.10691,0 0.435837,-0.140196 0.730936,-0.311544 z m -8.504124,-9.247764 c 0.290723,-0.492046 1.303317,-1.59563 2.691567,-2.933414 2.305633,-2.221824 4.727848,-4.116828 6.611842,-5.172724 l 0.991629,-0.555765 -0.461607,-0.494761 -0.461602,-0.49476 -0.64652,0.295925 c -0.355585,0.162758 -1.140566,0.626496 -1.744405,1.03053 -3.006472,2.011664 -7.939469,6.753235 -7.939469,7.63138 0,0.200681 0.550429,0.986336 0.705723,1.007312 0.03439,0.0046 0.148155,-0.136532 0.252842,-0.313723 z m -0.317743,-2.16251 c 0.301106,-0.512069 2.805532,-3.005352 4.037184,-4.019222 1.45034,-1.193887 3.117985,-2.413946 3.895854,-2.850229 l 0.679724,-0.381235 -0.321514,-0.33552 c -0.176833,-0.184536 -0.422386,-0.33552 -0.545674,-0.33552 -1.254411,0 -7.730656,5.439833 -8.595961,7.220324 -0.180343,0.371087 -0.176731,0.388533 0.151236,0.730787 0.184794,0.192843 0.367426,0.350624 0.405846,0.350624 0.03841,0 0.170407,-0.171004 0.293305,-0.380009 z m 1.300563,-3.554223 c 1.461868,-1.445822 3.65674,-3.191656 4.870964,-3.874437 0.369853,-0.207977 0.672462,-0.421134 0.672462,-0.473685 0,-0.05255 -0.128653,-0.216384 -0.285901,-0.364078 -0.378132,-0.355164 -0.612758,-0.286277 -1.830227,0.53736 -2.542448,1.72001 -5.953436,4.944175 -5.953436,5.627362 0,0.102621 0.118416,0.312677 0.263141,0.466792 l 0.263137,0.280208 0.281883,-0.389598 c 0.155037,-0.214279 0.928124,-1.028744 1.717977,-1.809924 z m -31.20927,-4.569059 c 0.198599,-0.300676 0.346326,-0.216646 -1.606967,-0.914072 -1.424506,-0.508622 -4.360694,-2.076887 -5.190954,-2.772571 -0.548408,-0.459517 -0.578024,-0.469773 -0.735352,-0.254657 -0.09016,0.123278 -0.148789,0.327863 -0.13028,0.454633 0.09053,0.620051 3.764059,2.719153 6.524387,3.728117 0.386285,0.141195 0.967841,0.01793 1.139166,-0.24145 z m 1.146983,-0.744717 c 0.102879,-0.198904 0.170014,-0.37413 0.149192,-0.389391 -0.02082,-0.01526 -0.458883,-0.173796 -0.973464,-0.3523 -2.299162,-0.797559 -6.08227,-2.768814 -7.132365,-3.716443 l -0.611668,-0.551982 -0.219539,0.407573 c -0.267082,0.495838 -0.199334,0.635866 0.606349,1.253262 1.372214,1.051527 4.58143,2.718652 6.340671,3.293854 0.687749,0.224867 1.341199,0.410698 1.452112,0.412959 0.110913,0.0023 0.285833,-0.158628 0.388712,-0.357532 z m 1.453881,-0.919883 c 0.284972,-0.558476 0.287492,-0.589287 0.04818,-0.589287 -0.103454,0 -0.748142,-0.188972 -1.432639,-0.419937 -2.334595,-0.787747 -6.769762,-3.137051 -8.155386,-4.3199 l -0.595534,-0.508383 -0.193879,0.406486 c -0.106635,0.223567 -0.19388,0.481076 -0.19388,0.572242 0,0.598491 3.867495,2.968982 7.017011,4.300912 2.867797,1.212792 3.149103,1.257552 3.50613,0.557867 z m 0.402787,-0.979591 c -0.09114,-0.237457 -1.537976,-1.301502 -2.566688,-1.887616 -0.50307,-0.286628 -0.957439,-0.588523 -1.00971,-0.670877 -0.191241,-0.301314 -0.08981,-0.7992 0.273961,-1.34481 0.204917,-0.307349 0.462761,-0.694221 0.572984,-0.859717 0.504641,-0.7576931 1.31862,-2.4007506 1.732118,-3.4963698 0.706845,-1.8728768 0.768371,-1.9029405 2.424619,-1.1847354 1.359625,0.5895785 2.836761,1.0083841 2.995795,0.8493837 C 41.753235,6.2691658 40.49871,5.2898139 38.951768,4.4383319 38.662316,4.2790093 37.951844,3.8816644 37.37294,3.5553438 36.794037,3.2290228 36.044187,2.8533526 35.706608,2.7205207 35.369029,2.5876892 34.790126,2.3263669 34.420156,2.1398045 33.622282,1.7374654 31.77635,1.0723218 31.457637,1.0723218 c -0.685932,0 0.09492,0.7401634 1.993589,1.8897071 1.386896,0.8396922 1.694791,1.2041889 1.407285,1.6659929 -1.360173,2.1847698 -2.311835,4.0071444 -2.753197,5.2722022 -0.179494,0.514473 -0.408668,1.031857 -0.509275,1.149742 -0.26736,0.313272 -0.782118,0.20596 -2.356342,-0.491225 -1.307553,-0.5790841 -2.45075,-0.8747705 -2.45075,-0.6338837 0,0.5764817 3.488983,2.6855347 7.330929,4.4314697 1.532588,0.696469 3.152095,1.077141 3.010249,0.707571 z M 0.0073522,33.343858 v -4.443183 h 0.63659483 c 0.76277107,0 1.00070817,0.241073 1.00070817,1.013898 0,0.877488 0.3420832,3.098548 0.7082585,4.598543 0.6558884,2.686773 0.6511151,2.701256 -1.00515,3.049531 -0.57641956,0.121206 -1.11382013,0.22128 -1.19422338,0.222385 C 0.03911948,37.7868 0.0073522,36.821523 0.0073522,33.343858 Z M 4.0389189,1.2651361 C 3.9120421,1.1782564 3.3380209,0.86255662 2.7633167,0.56358102 L 1.7183994,0.01998917 H 3.7301258 5.7418525 L 5.4573132,0.58138306 C 5.0775446,1.3306647 4.5241779,1.5974213 4.0389189,1.2651361 Z"
         id="path7422" /></g></g></svg>
